<svg width="14" height="14" viewBox="0 0 14 14" fill="none" xmlns="http://www.w3.org/2000/svg">
<path d="M6.99967 0.333496C3.31967 0.333496 0.333008 3.32016 0.333008 7.00016C0.333008 10.6802 3.31967 13.6668 6.99967 13.6668C10.6797 13.6668 13.6663 10.6802 13.6663 7.00016C13.6663 3.32016 10.6797 0.333496 6.99967 0.333496ZM6.99967 12.3335C4.05967 12.3335 1.66634 9.94016 1.66634 7.00016C1.66634 4.06016 4.05967 1.66683 6.99967 1.66683C9.93967 1.66683 12.333 4.06016 12.333 7.00016C12.333 9.94016 9.93967 12.3335 6.99967 12.3335ZM9.58634 4.52683L5.66634 8.44683L4.41301 7.1935C4.15301 6.9335 3.73301 6.9335 3.47301 7.1935C3.21301 7.4535 3.21301 7.8735 3.47301 8.1335L5.19967 9.86016C5.45967 10.1202 5.87967 10.1202 6.13967 9.86016L10.533 5.46683C10.793 5.20683 10.793 4.78683 10.533 4.52683C10.273 4.26683 9.84634 4.26683 9.58634 4.52683Z" fill="#2B303A"/>
</svg>
