<svg width="14" height="14" viewBox="0 0 14 14" fill="none" xmlns="http://www.w3.org/2000/svg">
<path d="M6.99967 3.66683C6.63301 3.66683 6.33301 3.96683 6.33301 4.3335V6.3335H4.33301C3.96634 6.3335 3.66634 6.6335 3.66634 7.00016C3.66634 7.36683 3.96634 7.66683 4.33301 7.66683H6.33301V9.66683C6.33301 10.0335 6.63301 10.3335 6.99967 10.3335C7.36634 10.3335 7.66634 10.0335 7.66634 9.66683V7.66683H9.66634C10.033 7.66683 10.333 7.36683 10.333 7.00016C10.333 6.6335 10.033 6.3335 9.66634 6.3335H7.66634V4.3335C7.66634 3.96683 7.36634 3.66683 6.99967 3.66683ZM6.99967 0.333496C3.32634 0.333496 0.333008 3.32683 0.333008 7.00016C0.333008 10.6735 3.32634 13.6668 6.99967 13.6668C10.673 13.6668 13.6663 10.6735 13.6663 7.00016C13.6663 3.32683 10.673 0.333496 6.99967 0.333496ZM6.99967 12.3335C4.05967 12.3335 1.66634 9.94016 1.66634 7.00016C1.66634 4.06016 4.05967 1.66683 6.99967 1.66683C9.93967 1.66683 12.333 4.06016 12.333 7.00016C12.333 9.94016 9.93967 12.3335 6.99967 12.3335Z" fill="#333333"/>
</svg>
